<?xml version="1.0" encoding="UTF-8"?>
<svg version="1.1" xmlns="http://www.w3.org/2000/svg" width="32" height="32">
<path d="M0 0 C2.84140692 1.63380898 3.95114233 3.14452834 5.01953125 6.24609375 C6.16360809 11.46420031 6.9727601 16.8703035 4.22265625 21.6640625 C2.16969287 24.10352509 0.36397858 26.00551071 -2.5 27.4375 C-14.54937959 28.28410674 -14.54937959 28.28410674 -19.5 25.4375 C-22.99751186 19.95806476 -23.68834739 13.81901906 -22.5 7.4375 C-17.22431439 -1.75864923 -9.70837421 -1.56027443 0 0 Z M-18.5 5.4375 C-20.65942819 8.67664229 -20.77232978 9.68609733 -20.75 13.4375 C-20.75515625 14.30375 -20.7603125 15.17 -20.765625 16.0625 C-20.65414552 18.703295 -20.65414552 18.703295 -18.5 21.4375 C-17.51 21.7675 -16.52 22.0975 -15.5 22.4375 C-14.84 23.4275 -14.18 24.4175 -13.5 25.4375 C-8.75145371 26.37040024 -4.6432988 26.12824302 -0.5 23.625 C2.69307065 20.13257898 3.77781597 18.11058215 3.75 13.4375 C3.75515625 12.57125 3.7603125 11.705 3.765625 10.8125 C3.65414552 8.171705 3.65414552 8.171705 1.5 5.4375 C0.51 5.1075 -0.48 4.7775 -1.5 4.4375 C-2.16 3.4475 -2.82 2.4575 -3.5 1.4375 C-9.45781616 0.26702638 -14.29184591 0.83483147 -18.5 5.4375 Z " fill="#FFFFFF" transform="translate(24.5,2.5625)"/>
<path d="M0 0 C0.38434943 4.80436782 0.47968712 8.09024857 -1.8125 12.4375 C-4 15 -4 15 -7 17 C-9.9375 16.9375 -9.9375 16.9375 -13 16 C-16.66118703 12.14091097 -18.13749237 9.6244659 -18.0625 4.375 C-18.05347656 3.55773437 -18.04445313 2.74046875 -18.03515625 1.8984375 C-18.02355469 1.27195312 -18.01195312 0.64546875 -18 0 C-11.12268701 -3.43865649 -7.11468222 -3.13883039 0 0 Z M-16 2 C-16.37076301 5.89301165 -16.10260771 7.80577827 -14.25 11.3125 C-12.25493494 13.98513905 -12.25493494 13.98513905 -10.0625 15.1875 C-6.61585752 14.87416887 -5.16606071 12.5173138 -3 10 C-1.64560332 7.29120665 -1.93498549 4.99066732 -2 2 C-8.31942121 -1.29708933 -9.68057879 -1.29708933 -16 2 Z " fill="#FFFFFF" transform="translate(25,9)"/>
<path d="M0 0 C1.32 0 2.64 0 4 0 C4 0.99 4 1.98 4 3 C4.66 3 5.32 3 6 3 C6 4.98 6 6.96 6 9 C3.36 9 0.72 9 -2 9 C-2 7.02 -2 5.04 -2 3 C-1.34 3 -0.68 3 0 3 C0 2.01 0 1.02 0 0 Z M0 5 C0 5.66 0 6.32 0 7 C1.32 7 2.64 7 4 7 C4 6.34 4 5.68 4 5 C2.68 5 1.36 5 0 5 Z " fill="#FFFFFF" transform="translate(14,11)"/>
</svg>
