<?xml version="1.0" encoding="UTF-8"?>
<svg version="1.1" xmlns="http://www.w3.org/2000/svg" width="64" height="64">
<path d="M0 0 C2.52061027 1.0222475 4.84442472 2.07469174 7.25 3.3125 C12.4930655 5.8984229 17.56244809 8.01133135 23.2421875 9.4921875 C25 10 25 10 26 11 C27.24804089 25.45661708 27.08034131 39.08205203 18 51 C17.41476563 51.80179688 16.82953125 52.60359375 16.2265625 53.4296875 C13.82219766 56.20525253 11.5024513 57.84486794 8.375 59.75 C7.41335937 60.34296875 6.45171875 60.9359375 5.4609375 61.546875 C1.23797012 64.04043669 -2.11337367 64.74343546 -7 64 C-16.42150876 60.17102258 -23.06267475 53.7651392 -28 45 C-28.41765625 44.2678125 -28.8353125 43.535625 -29.265625 42.78125 C-33.77074587 33.00957938 -32.34421775 21.50261322 -32 11 C-30.85273438 10.57976563 -29.70546875 10.15953125 -28.5234375 9.7265625 C-24.15610677 8.08857288 -19.88907773 6.26303442 -15.625 4.375 C-14.91472656 4.06304688 -14.20445313 3.75109375 -13.47265625 3.4296875 C-4.79908608 -0.38865838 -4.79908608 -0.38865838 0 0 Z M-5 4 C-1 5 -1 5 -1 5 Z M-12.5 11.875 C-13.16386719 12.14441406 -13.82773437 12.41382813 -14.51171875 12.69140625 C-17.73818496 14.01161697 -20.9131526 15.37783019 -24 17 C-24.74022557 32.3333351 -24.74022557 32.3333351 -17.75 45.625 C-16.88375 46.305625 -16.88375 46.305625 -16 47 C-16 46.01 -16 45.02 -16 44 C-15.01 44 -14.02 44 -13 44 C-13 44.66 -13 45.32 -13 46 C-12.030625 46.639375 -11.06125 47.27875 -10.0625 47.9375 C-7 50 -7 50 -6 53 C-7.485 53.495 -7.485 53.495 -9 54 C-6.60318808 55.56714626 -5.13857509 56 -2.25 56 C6.94133099 53.17189816 12.50299936 45.66106786 16.875 37.5 C19.08681738 31.08443614 18.21902269 23.68424788 18 17 C17.21496094 16.67386719 16.42992187 16.34773438 15.62109375 16.01171875 C14.57050781 15.57472656 13.51992188 15.13773438 12.4375 14.6875 C11.34308594 14.23375 10.24867187 13.78 9.12109375 13.3125 C6.72748736 12.3059271 4.36267424 11.26285283 2 10.1875 C-3.51573929 8.00418653 -7.34688492 9.72369953 -12.5 11.875 Z M-29 14 C-29 19.28 -29 24.56 -29 30 C-28.67 30 -28.34 30 -28 30 C-28 24.72 -28 19.44 -28 14 C-28.33 14 -28.66 14 -29 14 Z M22 14 C22 19.28 22 24.56 22 30 C22.33 30 22.66 30 23 30 C23 24.72 23 19.44 23 14 C22.67 14 22.34 14 22 14 Z M-28 31 C-27 35 -27 35 -27 35 Z M21 31 C22 35 22 35 22 35 Z M-27 36 C-26 39 -26 39 -26 39 Z M20 36 C21 39 21 39 21 39 Z M-26 39 C-25 41 -25 41 -25 41 Z M19 39 C20 41 20 41 20 41 Z M-16 47 C-15.34 47.66 -14.68 48.32 -14 49 C-13.67 48.34 -13.34 47.68 -13 47 C-13.99 47 -14.98 47 -16 47 Z M-5 60 C-1 61 -1 61 -1 61 Z " fill="#FFFFFF" transform="translate(35,0)"/>
<path d="M0 0 C2.375 1.5625 2.375 1.5625 4 4 C4.25 7.75 4.25 7.75 4 11 C4.99 11.33 5.98 11.66 7 12 C7.05386629 14.12472576 7.09273071 16.24983652 7.125 18.375 C7.14820312 19.55835937 7.17140625 20.74171875 7.1953125 21.9609375 C7 25 7 25 5 27 C2.29077199 27.19852102 -0.29303179 27.27839477 -3 27.25 C-3.73734375 27.25773437 -4.4746875 27.26546875 -5.234375 27.2734375 C-10.7466804 27.2533196 -10.7466804 27.2533196 -13 25 C-13.1953125 21.9609375 -13.1953125 21.9609375 -13.125 18.375 C-13.10695313 17.18648437 -13.08890625 15.99796875 -13.0703125 14.7734375 C-13.04710938 13.85820312 -13.02390625 12.94296875 -13 12 C-12.01 11.67 -11.02 11.34 -10 11 C-10.0825 9.9275 -10.165 8.855 -10.25 7.75 C-10 4 -10 4 -8.375 1.5625 C-5.28314769 -0.47161336 -3.63632575 -0.60605429 0 0 Z M-5.625 4.1875 C-7.42149467 6.55560662 -7.23521845 8.09897251 -7 11 C-4.36 11 -1.72 11 1 11 C1.32835656 7.32728956 1.32835656 7.32728956 -0.375 4.1875 C-2.59345169 2.56632376 -3.40654831 2.56632376 -5.625 4.1875 Z M-9 14 C-9 16.97 -9 19.94 -9 23 C-5.04 23 -1.08 23 3 23 C3 20.03 3 17.06 3 14 C-0.96 14 -4.92 14 -9 14 Z " fill="#FFFFFF" transform="translate(35,15)"/>
<path d="M0 0 C1.32 0 2.64 0 4 0 C4 1.98 4 3.96 4 6 C2.68 6 1.36 6 0 6 C0 4.02 0 2.04 0 0 Z " fill="#FFFFFF" transform="translate(30,31)"/>
</svg>
